<?xml version="1.0" encoding="UTF-8"?>
<svg xmlns="http://www.w3.org/2000/svg" viewBox="0 0 24 24" width="24" height="24" fill="none" aria-hidden="true">
  <defs>
    <mask id="paletteMask" maskUnits="userSpaceOnUse" x="0" y="0" width="24" height="24">
      <path d="M12 3.8 C7.3 3.8 3.8 7.5 3.8 12.2 C3.8 15.8 6.5 18.8 10 19.5 C10.8 19.7 11.5 19.1 11.5 18.3 V17.2 C11.5 15.8 12.6 14.7 14 14.7 H16.5 C18.8 14.7 20.2 12.8 20.2 10.5 C20.2 6.8 16.5 3.8 12 3.8 Z" fill="#fff" stroke="#fff" stroke-width="1.85" stroke-linejoin="round"/>
      <circle cx="7.8" cy="11" r="1.45" fill="#000"/>
      <circle cx="10.2" cy="7.8" r="1.45" fill="#000"/>
      <circle cx="14.2" cy="7.5" r="1.45" fill="#000"/>
      <circle cx="17" cy="10.2" r="1.45" fill="#000"/>
    </mask>
  </defs>
  <rect width="24" height="24" fill="currentColor" mask="url(#paletteMask)"/>
</svg>
