<svg xmlns="http://www.w3.org/2000/svg" xmlns:xlink="http://www.w3.org/1999/xlink" viewBox="0 0 24 24">
  <defs>
    <path id="a" d="M21 19.6V8.4A1.4 1.4 0 0 0 19.6 7H4.4A1.4 1.4 0 0 0 3 8.4v11.2A1.4 1.4 0 0 0 4.4 21h15.2a1.4 1.4 0 0 0 1.4-1.4zM19.6 4A2.4 2.4 0 0 1 22 6.4v13.2a2.4 2.4 0 0 1-2.4 2.4H4.4A2.4 2.4 0 0 1 2 19.6V6.4A2.4 2.4 0 0 1 4.4 4a.6.6 0 0 0 .6-.6V3a1 1 0 0 1 1.067-.998c.531.035.933.5.933 1.032V3.2a.8.8 0 0 0 .8.8h8.4a.8.8 0 0 0 .8-.8V3a1 1 0 0 1 1.067-.998c.531.035.933.5.933 1.032V3.4a.6.6 0 0 0 .6.6zM5.5 9a.5.5 0 1 1 0 1 .5.5 0 0 1 0-1zm3 0a.5.5 0 1 1 0 1 .5.5 0 0 1 0-1zm3 0a.5.5 0 1 1 0 1 .5.5 0 0 1 0-1zm3 0a.5.5 0 1 1 0 1 .5.5 0 0 1 0-1zm3 0a.5.5 0 1 1 0 1 .5.5 0 0 1 0-1zm-12 4a.5.5 0 1 1 0 1 .5.5 0 0 1 0-1zm3 0a.5.5 0 1 1 0 1 .5.5 0 0 1 0-1zm3 0a.5.5 0 1 1 0 1 .5.5 0 0 1 0-1zm3 0a.5.5 0 1 1 0 1 .5.5 0 0 1 0-1zm3 0a.5.5 0 1 1 0 1 .5.5 0 0 1 0-1zm-12 4a.5.5 0 1 1 0 1 .5.5 0 0 1 0-1zm3 0a.5.5 0 1 1 0 1 .5.5 0 0 1 0-1zm3 0a.5.5 0 1 1 0 1 .5.5 0 0 1 0-1z"/>
  </defs>
  <g fill="none" fill-rule="evenodd">
    <mask id="b" fill="#fff">
      <use xlink:href="#a"/>
    </mask>
    <g fill="#000" fill-opacity=".54" mask="url(#b)">
      <path d="M0 0h24v24H0z"/>
    </g>
  </g>
</svg>
