<svg xmlns="http://www.w3.org/2000/svg" xmlns:xlink="http://www.w3.org/1999/xlink" viewBox="0 0 24 24">
  <defs>
    <path id="a" d="M12 3c-4.963 0-9 4.037-9 9s4.037 9 9 9 9-4.037 9-9-4.037-9-9-9zm0-1c5.523 0 10 4.477 10 10s-4.477 10-10 10S2 17.523 2 12 6.477 2 12 2zm.402 16.742c-.098.344-.8.344-.899 0l-1.451-6.31c-.214-.929.245-1.904 1.122-2.275a1.994 1.994 0 0 1 1.557 0c.878.371 1.336 1.346 1.122 2.275l-1.451 6.31z"/>
  </defs>
  <g fill="none" fill-rule="evenodd">
    <mask id="b" fill="#fff">
      <use xlink:href="#a"/>
    </mask>
    <g fill="#000" fill-opacity=".54" mask="url(#b)">
      <path d="M0 0h24v24H0z"/>
    </g>
  </g>
</svg>
