<?xml version="1.0" encoding="utf-8"?>
<!-- Generator: Adobe Illustrator 24.2.3, SVG Export Plug-In . SVG Version: 6.00 Build 0)  -->
<svg version="1.1" id="Layer_1" xmlns="http://www.w3.org/2000/svg" xmlns:xlink="http://www.w3.org/1999/xlink" x="0px" y="0px"
	 viewBox="0 0 140 24" style="enable-background:new 0 0 140 24;" xml:space="preserve">
<style type="text/css">
	.st0{display:none;}
	.st1{display:inline;}
</style>
<g>
	<polygon points="11.2,20.5 11.2,3.5 1.9,20.5 	"/>
	<polygon points="22.3,7.7 13,3.5 13,20.5 22.3,16.3 17.6,12 	"/>
</g>
<g>
	<g>
		<path d="M32.6,9.8c0.2,0,0.4,0.1,0.6,0.2s0.2,0.4,0.2,0.6v5.9c0,0.2-0.1,0.4-0.2,0.6s-0.4,0.2-0.6,0.2s-0.4-0.1-0.6-0.2
			c-0.2-0.2-0.2-0.4-0.2-0.6v-0.7L32,16c0,0.1-0.1,0.3-0.2,0.4c-0.1,0.2-0.3,0.3-0.5,0.5c-0.2,0.2-0.5,0.3-0.8,0.4
			c-0.3,0.1-0.6,0.2-1,0.2c-0.6,0-1.2-0.2-1.8-0.5c-0.5-0.3-0.9-0.8-1.2-1.4c-0.3-0.6-0.5-1.3-0.5-2c0-0.8,0.2-1.4,0.5-2
			c0.3-0.6,0.7-1,1.2-1.4c0.5-0.3,1.1-0.5,1.7-0.5c0.4,0,0.8,0.1,1.1,0.2c0.3,0.1,0.6,0.3,0.9,0.5c0.2,0.2,0.4,0.4,0.6,0.6
			c0.1,0.2,0.2,0.4,0.2,0.5l-0.5,0.2v-1c0-0.2,0.1-0.4,0.2-0.6C32.1,9.9,32.3,9.8,32.6,9.8z M29.7,16c0.4,0,0.8-0.1,1.1-0.3
			s0.5-0.5,0.7-0.8c0.2-0.4,0.3-0.8,0.3-1.2c0-0.4-0.1-0.8-0.3-1.2c-0.2-0.4-0.4-0.6-0.7-0.8c-0.3-0.2-0.7-0.3-1.1-0.3
			c-0.4,0-0.8,0.1-1.1,0.3c-0.3,0.2-0.5,0.5-0.7,0.8c-0.2,0.4-0.3,0.8-0.3,1.2c0,0.4,0.1,0.8,0.3,1.2c0.2,0.4,0.4,0.6,0.7,0.8
			S29.3,16,29.7,16z"/>
		<path d="M39.1,9.8c0.7,0,1.2,0.2,1.8,0.5c0.5,0.3,0.9,0.8,1.2,1.4c0.3,0.6,0.5,1.3,0.5,2c0,0.8-0.2,1.4-0.5,2
			c-0.3,0.6-0.7,1-1.2,1.4c-0.5,0.3-1.1,0.5-1.7,0.5c-0.4,0-0.7-0.1-1.1-0.2s-0.6-0.3-0.9-0.5c-0.2-0.2-0.4-0.4-0.6-0.6
			s-0.2-0.4-0.2-0.5l0.4-0.2v1c0,0.2-0.1,0.4-0.2,0.6s-0.4,0.2-0.6,0.2s-0.4-0.1-0.6-0.2c-0.2-0.2-0.2-0.4-0.2-0.6V7.9
			c0-0.2,0.1-0.4,0.2-0.6C35.6,7.1,35.8,7,36.1,7s0.4,0.1,0.6,0.2c0.2,0.2,0.2,0.4,0.2,0.6v3.6l-0.2-0.1c0-0.1,0.1-0.3,0.2-0.4
			c0.1-0.2,0.3-0.3,0.5-0.5c0.2-0.2,0.5-0.3,0.8-0.4C38.5,9.8,38.8,9.8,39.1,9.8z M38.9,11.3c-0.4,0-0.8,0.1-1.1,0.3
			c-0.3,0.2-0.5,0.5-0.7,0.8c-0.2,0.4-0.3,0.7-0.3,1.2c0,0.4,0.1,0.8,0.3,1.2c0.2,0.4,0.4,0.6,0.7,0.8s0.7,0.3,1.1,0.3
			c0.4,0,0.8-0.1,1.1-0.3s0.5-0.5,0.7-0.8c0.2-0.4,0.3-0.8,0.3-1.2c0-0.4-0.1-0.8-0.3-1.2c-0.2-0.3-0.4-0.6-0.7-0.8
			C39.7,11.4,39.3,11.3,38.9,11.3z"/>
		<path d="M44.9,17.4c-0.2,0-0.4-0.1-0.6-0.2S44,16.8,44,16.5v-5.8c0-0.2,0.1-0.4,0.2-0.6c0.2-0.2,0.4-0.2,0.6-0.2s0.4,0.1,0.6,0.2
			c0.2,0.2,0.2,0.4,0.2,0.6v1.3l-0.1-0.9c0.1-0.2,0.2-0.4,0.4-0.6c0.2-0.2,0.3-0.3,0.6-0.4c0.2-0.1,0.4-0.2,0.7-0.3
			c0.2-0.1,0.5-0.1,0.7-0.1c0.3,0,0.5,0.1,0.7,0.2s0.3,0.3,0.3,0.6c0,0.3-0.1,0.5-0.2,0.7s-0.3,0.2-0.5,0.2c-0.2,0-0.3,0-0.5-0.1
			c-0.1-0.1-0.3-0.1-0.5-0.1c-0.2,0-0.3,0-0.5,0.1c-0.2,0.1-0.3,0.2-0.5,0.4c-0.1,0.2-0.3,0.4-0.4,0.6c-0.1,0.2-0.1,0.5-0.1,0.9v3.3
			c0,0.2-0.1,0.4-0.2,0.6S45.1,17.4,44.9,17.4z"/>
		<path d="M56.2,9.8c0.2,0,0.4,0.1,0.6,0.2c0.2,0.2,0.2,0.4,0.2,0.6v5.9c0,0.2-0.1,0.4-0.2,0.6c-0.2,0.2-0.4,0.2-0.6,0.2
			c-0.2,0-0.4-0.1-0.6-0.2c-0.2-0.2-0.2-0.4-0.2-0.6v-0.7l0.3,0.1c0,0.1-0.1,0.3-0.2,0.4c-0.1,0.2-0.3,0.3-0.5,0.5
			c-0.2,0.2-0.5,0.3-0.8,0.4c-0.3,0.1-0.6,0.2-1,0.2c-0.6,0-1.2-0.2-1.8-0.5c-0.5-0.3-0.9-0.8-1.2-1.4c-0.3-0.6-0.5-1.3-0.5-2
			c0-0.8,0.2-1.4,0.5-2c0.3-0.6,0.7-1,1.2-1.4c0.5-0.3,1.1-0.5,1.7-0.5c0.4,0,0.8,0.1,1.1,0.2c0.3,0.1,0.6,0.3,0.9,0.5
			s0.4,0.4,0.6,0.6s0.2,0.4,0.2,0.5l-0.5,0.2v-1c0-0.2,0.1-0.4,0.2-0.6C55.8,9.9,56,9.8,56.2,9.8z M53.4,16c0.4,0,0.8-0.1,1.1-0.3
			s0.5-0.5,0.7-0.8c0.2-0.4,0.3-0.8,0.3-1.2c0-0.4-0.1-0.8-0.3-1.2s-0.4-0.6-0.7-0.8c-0.3-0.2-0.7-0.3-1.1-0.3
			c-0.4,0-0.8,0.1-1.1,0.3c-0.3,0.2-0.5,0.5-0.7,0.8s-0.3,0.8-0.3,1.2c0,0.4,0.1,0.8,0.3,1.2c0.2,0.4,0.4,0.6,0.7,0.8
			C52.6,15.9,53,16,53.4,16z"/>
		<path d="M62.8,9.8c0.7,0,1.2,0.1,1.5,0.4c0.3,0.3,0.6,0.7,0.7,1.2c0.1,0.5,0.2,1,0.2,1.6v3.6c0,0.2-0.1,0.4-0.2,0.6
			c-0.2,0.2-0.4,0.2-0.6,0.2c-0.2,0-0.4-0.1-0.6-0.2c-0.2-0.2-0.2-0.4-0.2-0.6V13c0-0.3,0-0.6-0.1-0.8c-0.1-0.2-0.2-0.4-0.4-0.6
			c-0.2-0.1-0.5-0.2-0.8-0.2c-0.4,0-0.7,0.1-0.9,0.2c-0.3,0.1-0.4,0.3-0.6,0.6c-0.1,0.2-0.2,0.5-0.2,0.8v3.6c0,0.2-0.1,0.4-0.2,0.6
			c-0.2,0.2-0.4,0.2-0.6,0.2c-0.2,0-0.4-0.1-0.6-0.2c-0.2-0.2-0.2-0.4-0.2-0.6V7.9c0-0.2,0.1-0.4,0.2-0.6C59.3,7.1,59.5,7,59.7,7
			c0.2,0,0.4,0.1,0.6,0.2c0.2,0.2,0.2,0.4,0.2,0.6v3.5l-0.2,0c0.1-0.2,0.2-0.3,0.4-0.5c0.1-0.2,0.3-0.4,0.5-0.5
			c0.2-0.2,0.5-0.3,0.7-0.4C62.2,9.8,62.5,9.8,62.8,9.8z"/>
		<path d="M73.2,9.8c0.2,0,0.4,0.1,0.6,0.2c0.2,0.2,0.2,0.4,0.2,0.6v5.9c0,0.2-0.1,0.4-0.2,0.6c-0.2,0.2-0.4,0.2-0.6,0.2
			c-0.2,0-0.4-0.1-0.6-0.2c-0.2-0.2-0.2-0.4-0.2-0.6v-0.7l0.3,0.1c0,0.1-0.1,0.3-0.2,0.4c-0.1,0.2-0.3,0.3-0.5,0.5
			c-0.2,0.2-0.5,0.3-0.8,0.4c-0.3,0.1-0.6,0.2-1,0.2c-0.6,0-1.2-0.2-1.8-0.5c-0.5-0.3-0.9-0.8-1.2-1.4c-0.3-0.6-0.5-1.3-0.5-2
			c0-0.8,0.2-1.4,0.5-2c0.3-0.6,0.7-1,1.2-1.4c0.5-0.3,1.1-0.5,1.7-0.5c0.4,0,0.8,0.1,1.1,0.2c0.3,0.1,0.6,0.3,0.9,0.5
			s0.4,0.4,0.6,0.6s0.2,0.4,0.2,0.5l-0.5,0.2v-1c0-0.2,0.1-0.4,0.2-0.6C72.8,9.9,73,9.8,73.2,9.8z M70.4,16c0.4,0,0.8-0.1,1.1-0.3
			s0.5-0.5,0.7-0.8c0.2-0.4,0.3-0.8,0.3-1.2c0-0.4-0.1-0.8-0.3-1.2s-0.4-0.6-0.7-0.8c-0.3-0.2-0.7-0.3-1.1-0.3
			c-0.4,0-0.8,0.1-1.1,0.3c-0.3,0.2-0.5,0.5-0.7,0.8s-0.3,0.8-0.3,1.2c0,0.4,0.1,0.8,0.3,1.2c0.2,0.4,0.4,0.6,0.7,0.8
			C69.6,15.9,70,16,70.4,16z"/>
		<path d="M79.8,9.8c0.7,0,1.3,0.2,1.7,0.5s0.6,0.8,0.7,1.4l-0.2-0.1l0.1-0.2c0.1-0.2,0.3-0.4,0.5-0.7c0.2-0.2,0.5-0.5,0.8-0.6
			c0.3-0.2,0.7-0.3,1.1-0.3c0.7,0,1.2,0.1,1.5,0.4c0.3,0.3,0.6,0.7,0.7,1.2c0.1,0.5,0.2,1,0.2,1.6v3.6c0,0.2-0.1,0.4-0.2,0.6
			c-0.2,0.2-0.4,0.2-0.6,0.2c-0.2,0-0.4-0.1-0.6-0.2c-0.2-0.2-0.2-0.4-0.2-0.6V13c0-0.3,0-0.6-0.1-0.8c-0.1-0.2-0.2-0.4-0.4-0.6
			c-0.2-0.1-0.5-0.2-0.8-0.2c-0.4,0-0.7,0.1-0.9,0.2c-0.3,0.1-0.4,0.3-0.6,0.6c-0.1,0.2-0.2,0.5-0.2,0.8v3.6c0,0.2-0.1,0.4-0.2,0.6
			c-0.2,0.2-0.4,0.2-0.6,0.2c-0.2,0-0.4-0.1-0.6-0.2c-0.2-0.2-0.2-0.4-0.2-0.6V13c0-0.3,0-0.6-0.1-0.8c-0.1-0.2-0.2-0.4-0.4-0.6
			c-0.2-0.1-0.5-0.2-0.8-0.2c-0.4,0-0.7,0.1-0.9,0.2c-0.3,0.1-0.4,0.3-0.6,0.6c-0.1,0.2-0.2,0.5-0.2,0.8v3.6c0,0.2-0.1,0.4-0.2,0.6
			c-0.2,0.2-0.4,0.2-0.6,0.2c-0.2,0-0.4-0.1-0.6-0.2c-0.2-0.2-0.2-0.4-0.2-0.6v-5.8c0-0.2,0.1-0.4,0.2-0.6c0.2-0.2,0.4-0.2,0.6-0.2
			c0.2,0,0.4,0.1,0.6,0.2c0.2,0.2,0.2,0.4,0.2,0.6v0.6l-0.2,0c0.1-0.2,0.2-0.3,0.4-0.5c0.1-0.2,0.3-0.4,0.5-0.5
			c0.2-0.2,0.5-0.3,0.7-0.4C79.2,9.8,79.5,9.8,79.8,9.8z"/>
		<path d="M89.4,13.9c-0.2,0-0.4-0.1-0.6-0.2c-0.2-0.2-0.2-0.4-0.2-0.6c0-0.2,0.1-0.4,0.2-0.6c0.2-0.2,0.4-0.2,0.6-0.2h2.4
			c0.2,0,0.4,0.1,0.6,0.2s0.2,0.4,0.2,0.6c0,0.2-0.1,0.4-0.2,0.6c-0.2,0.2-0.4,0.2-0.6,0.2H89.4z"/>
		<path d="M99.9,9.9c0.2,0,0.4,0.1,0.6,0.2c0.2,0.2,0.2,0.4,0.2,0.6v3.6c0,1-0.3,1.8-0.8,2.4c-0.6,0.6-1.3,0.9-2.4,0.9
			c-1,0-1.8-0.3-2.4-0.9c-0.5-0.6-0.8-1.4-0.8-2.4v-3.6c0-0.2,0.1-0.4,0.2-0.6c0.2-0.2,0.4-0.2,0.6-0.2c0.2,0,0.4,0.1,0.6,0.2
			c0.2,0.2,0.2,0.4,0.2,0.6v3.6c0,0.6,0.1,1,0.4,1.3S97,16,97.5,16c0.5,0,0.9-0.1,1.1-0.4s0.4-0.7,0.4-1.3v-3.6
			c0-0.2,0.1-0.4,0.2-0.6C99.5,10,99.7,9.9,99.9,9.9z"/>
		<path d="M103.5,17.4c-0.2,0-0.4-0.1-0.6-0.2c-0.2-0.2-0.2-0.4-0.2-0.6V7.9c0-0.2,0.1-0.4,0.2-0.6c0.2-0.2,0.4-0.2,0.6-0.2
			c0.2,0,0.4,0.1,0.6,0.2c0.2,0.2,0.2,0.4,0.2,0.6v8.7c0,0.2-0.1,0.4-0.2,0.6C104,17.3,103.8,17.4,103.5,17.4z M108,9.9
			c0.2,0,0.4,0.1,0.6,0.3c0.2,0.2,0.2,0.4,0.2,0.5c0,0.2-0.1,0.4-0.3,0.6l-4.2,3.9l-0.1-1.9l3.2-3.1C107.5,10,107.8,9.9,108,9.9z
			 M108.2,17.4c-0.2,0-0.4-0.1-0.6-0.3l-2.6-2.7l1.3-1.2l2.5,2.7c0.2,0.2,0.3,0.4,0.3,0.6c0,0.2-0.1,0.4-0.3,0.6
			S108.4,17.4,108.2,17.4z"/>
		<path d="M116.7,9.8c0.2,0,0.4,0.1,0.6,0.2c0.2,0.2,0.2,0.4,0.2,0.6v5.9c0,0.2-0.1,0.4-0.2,0.6c-0.2,0.2-0.4,0.2-0.6,0.2
			c-0.2,0-0.4-0.1-0.6-0.2c-0.2-0.2-0.2-0.4-0.2-0.6v-0.7l0.3,0.1c0,0.1-0.1,0.3-0.2,0.4c-0.1,0.2-0.3,0.3-0.5,0.5
			c-0.2,0.2-0.5,0.3-0.8,0.4c-0.3,0.1-0.6,0.2-1,0.2c-0.6,0-1.2-0.2-1.8-0.5c-0.5-0.3-0.9-0.8-1.2-1.4c-0.3-0.6-0.5-1.3-0.5-2
			c0-0.8,0.2-1.4,0.5-2c0.3-0.6,0.7-1,1.2-1.4c0.5-0.3,1.1-0.5,1.7-0.5c0.4,0,0.8,0.1,1.1,0.2c0.3,0.1,0.6,0.3,0.9,0.5
			s0.4,0.4,0.6,0.6s0.2,0.4,0.2,0.5l-0.5,0.2v-1c0-0.2,0.1-0.4,0.2-0.6C116.2,9.9,116.4,9.8,116.7,9.8z M113.8,16
			c0.4,0,0.8-0.1,1.1-0.3s0.5-0.5,0.7-0.8c0.2-0.4,0.3-0.8,0.3-1.2c0-0.4-0.1-0.8-0.3-1.2s-0.4-0.6-0.7-0.8
			c-0.3-0.2-0.7-0.3-1.1-0.3c-0.4,0-0.8,0.1-1.1,0.3c-0.3,0.2-0.5,0.5-0.7,0.8s-0.3,0.8-0.3,1.2c0,0.4,0.1,0.8,0.3,1.2
			c0.2,0.4,0.4,0.6,0.7,0.8C113.1,15.9,113.4,16,113.8,16z"/>
		<path d="M122.6,9.8c0.5,0,1,0.1,1.4,0.2c0.4,0.1,0.7,0.3,0.9,0.5c0.2,0.2,0.3,0.4,0.3,0.7c0,0.2-0.1,0.4-0.2,0.5
			c-0.1,0.2-0.3,0.2-0.5,0.2c-0.1,0-0.3,0-0.4-0.1c-0.1,0-0.2-0.1-0.3-0.2c-0.1-0.1-0.2-0.1-0.3-0.2c-0.1-0.1-0.2-0.1-0.4-0.1
			s-0.3,0-0.4,0c-0.5,0-0.9,0.1-1.2,0.3c-0.3,0.2-0.6,0.5-0.8,0.8c-0.2,0.4-0.3,0.8-0.3,1.2c0,0.4,0.1,0.8,0.3,1.2
			c0.2,0.3,0.4,0.6,0.8,0.8c0.3,0.2,0.7,0.3,1.1,0.3c0.2,0,0.4,0,0.6,0s0.3-0.1,0.4-0.1c0.1-0.1,0.2-0.2,0.3-0.2s0.3-0.1,0.5-0.1
			c0.2,0,0.4,0.1,0.6,0.2c0.1,0.2,0.2,0.3,0.2,0.6c0,0.2-0.1,0.4-0.4,0.6c-0.3,0.2-0.6,0.3-1,0.5s-0.9,0.2-1.4,0.2
			c-0.7,0-1.4-0.2-1.9-0.5s-1-0.8-1.3-1.4c-0.3-0.6-0.4-1.2-0.4-2c0-0.8,0.2-1.4,0.5-2c0.3-0.6,0.7-1,1.3-1.4
			C121.3,9.9,121.9,9.8,122.6,9.8z"/>
		<path d="M130.5,9.8c0.7,0,1.2,0.1,1.5,0.4c0.3,0.3,0.6,0.7,0.7,1.2c0.1,0.5,0.2,1,0.2,1.6v3.6c0,0.2-0.1,0.4-0.2,0.6
			c-0.2,0.2-0.4,0.2-0.6,0.2c-0.2,0-0.4-0.1-0.6-0.2c-0.2-0.2-0.2-0.4-0.2-0.6V13c0-0.3,0-0.6-0.1-0.8c-0.1-0.2-0.2-0.4-0.4-0.6
			c-0.2-0.1-0.5-0.2-0.8-0.2c-0.4,0-0.7,0.1-0.9,0.2c-0.3,0.1-0.4,0.3-0.6,0.6c-0.1,0.2-0.2,0.5-0.2,0.8v3.6c0,0.2-0.1,0.4-0.2,0.6
			c-0.2,0.2-0.4,0.2-0.6,0.2c-0.2,0-0.4-0.1-0.6-0.2c-0.2-0.2-0.2-0.4-0.2-0.6V7.9c0-0.2,0.1-0.4,0.2-0.6c0.2-0.2,0.4-0.2,0.6-0.2
			c0.2,0,0.4,0.1,0.6,0.2c0.2,0.2,0.2,0.4,0.2,0.6v3.5l-0.2,0c0.1-0.2,0.2-0.3,0.4-0.5c0.1-0.2,0.3-0.4,0.5-0.5
			c0.2-0.2,0.5-0.3,0.7-0.4C129.9,9.8,130.2,9.8,130.5,9.8z"/>
		<path d="M135.5,9c-0.3,0-0.5-0.1-0.7-0.2c-0.1-0.1-0.2-0.3-0.2-0.5V8c0-0.3,0.1-0.5,0.2-0.6c0.1-0.1,0.4-0.1,0.7-0.1
			c0.3,0,0.6,0.1,0.7,0.2c0.1,0.1,0.2,0.3,0.2,0.5v0.3c0,0.3-0.1,0.5-0.2,0.6C136.1,9,135.8,9,135.5,9z M136.4,16.5
			c0,0.2-0.1,0.4-0.2,0.6c-0.2,0.2-0.4,0.2-0.6,0.2c-0.2,0-0.4-0.1-0.6-0.2c-0.2-0.2-0.2-0.4-0.2-0.6v-5.8c0-0.2,0.1-0.4,0.2-0.6
			c0.2-0.2,0.4-0.2,0.6-0.2c0.2,0,0.4,0.1,0.6,0.2c0.2,0.2,0.2,0.4,0.2,0.6V16.5z"/>
	</g>
</g>
<g>
	<g class="st0">
		<path class="st1" d="M31.5,84.1c0.2,0,0.4,0.1,0.5,0.2c0.1,0.1,0.2,0.3,0.2,0.5v6c0,0.2-0.1,0.4-0.2,0.5c-0.1,0.1-0.3,0.2-0.5,0.2
			c-0.2,0-0.4-0.1-0.5-0.2c-0.1-0.1-0.2-0.3-0.2-0.5v-1l0.3,0.1c0,0.2-0.1,0.3-0.2,0.6c-0.1,0.2-0.3,0.4-0.6,0.6
			c-0.2,0.2-0.5,0.3-0.8,0.5s-0.7,0.2-1,0.2c-0.6,0-1.2-0.2-1.7-0.5c-0.5-0.3-0.9-0.8-1.2-1.4s-0.4-1.2-0.4-2c0-0.8,0.1-1.4,0.4-2
			c0.3-0.6,0.7-1,1.2-1.4c0.5-0.3,1.1-0.5,1.7-0.5c0.4,0,0.8,0.1,1.1,0.2c0.3,0.1,0.6,0.3,0.9,0.5c0.3,0.2,0.4,0.4,0.6,0.7
			s0.2,0.4,0.2,0.7l-0.4,0v-1.3c0-0.2,0.1-0.4,0.2-0.5C31.2,84.1,31.3,84.1,31.5,84.1z M28.7,90.4c0.4,0,0.8-0.1,1.2-0.3
			c0.3-0.2,0.6-0.5,0.8-0.9c0.2-0.4,0.3-0.8,0.3-1.3c0-0.5-0.1-0.9-0.3-1.3c-0.2-0.4-0.4-0.7-0.8-0.9c-0.3-0.2-0.7-0.3-1.2-0.3
			c-0.4,0-0.8,0.1-1.1,0.3c-0.3,0.2-0.6,0.5-0.8,0.9c-0.2,0.4-0.3,0.8-0.3,1.3c0,0.5,0.1,0.9,0.3,1.3c0.2,0.4,0.5,0.7,0.8,0.9
			C27.9,90.3,28.3,90.4,28.7,90.4z"/>
		<path class="st1" d="M37.9,84c0.7,0,1.2,0.2,1.7,0.5c0.5,0.3,0.9,0.8,1.2,1.4c0.3,0.6,0.4,1.2,0.4,2c0,0.7-0.1,1.4-0.4,2
			c-0.3,0.6-0.7,1-1.2,1.4s-1.1,0.5-1.7,0.5c-0.4,0-0.7-0.1-1-0.2c-0.3-0.1-0.6-0.3-0.8-0.4c-0.2-0.2-0.4-0.4-0.6-0.6
			c-0.2-0.2-0.2-0.4-0.3-0.6l0.4-0.2v1.2c0,0.2-0.1,0.4-0.2,0.5s-0.3,0.2-0.5,0.2c-0.2,0-0.4-0.1-0.5-0.2s-0.2-0.3-0.2-0.5v-9
			c0-0.2,0.1-0.4,0.2-0.5c0.1-0.1,0.3-0.2,0.5-0.2c0.2,0,0.4,0.1,0.5,0.2c0.1,0.1,0.2,0.3,0.2,0.5v3.9l-0.2-0.1
			c0-0.2,0.1-0.4,0.3-0.6s0.3-0.4,0.6-0.6c0.2-0.2,0.5-0.3,0.8-0.4C37.3,84.1,37.6,84,37.9,84z M37.8,85.3c-0.4,0-0.8,0.1-1.2,0.3
			c-0.3,0.2-0.6,0.5-0.8,0.9s-0.3,0.8-0.3,1.3s0.1,0.9,0.3,1.3c0.2,0.4,0.4,0.7,0.8,0.9c0.3,0.2,0.7,0.3,1.2,0.3
			c0.4,0,0.8-0.1,1.1-0.3c0.3-0.2,0.6-0.5,0.8-0.9c0.2-0.4,0.3-0.8,0.3-1.3c0-0.5-0.1-0.9-0.3-1.3c-0.2-0.4-0.4-0.7-0.8-0.9
			C38.6,85.4,38.2,85.3,37.8,85.3z"/>
		<path class="st1" d="M43.6,91.5c-0.2,0-0.4-0.1-0.5-0.2c-0.1-0.1-0.2-0.3-0.2-0.5v-5.9c0-0.2,0.1-0.4,0.2-0.5
			c0.1-0.1,0.3-0.2,0.5-0.2c0.2,0,0.4,0.1,0.5,0.2c0.1,0.1,0.2,0.3,0.2,0.5v1.6l-0.1-0.6c0.1-0.3,0.2-0.5,0.3-0.7
			c0.2-0.2,0.3-0.4,0.6-0.6c0.2-0.2,0.5-0.3,0.7-0.4C46,84,46.3,84,46.6,84c0.2,0,0.5,0.1,0.6,0.2s0.3,0.3,0.3,0.5
			c0,0.3-0.1,0.4-0.2,0.6c-0.1,0.1-0.3,0.2-0.4,0.2c-0.1,0-0.3,0-0.4-0.1c-0.1-0.1-0.3-0.1-0.5-0.1c-0.2,0-0.4,0.1-0.6,0.2
			c-0.2,0.1-0.4,0.3-0.6,0.5c-0.2,0.2-0.3,0.4-0.4,0.7c-0.1,0.3-0.1,0.6-0.1,0.9v3.4c0,0.2-0.1,0.4-0.2,0.5
			C44,91.5,43.8,91.5,43.6,91.5z"/>
		<path class="st1" d="M54.8,84.1c0.2,0,0.4,0.1,0.5,0.2c0.1,0.1,0.2,0.3,0.2,0.5v6c0,0.2-0.1,0.4-0.2,0.5c-0.1,0.1-0.3,0.2-0.5,0.2
			s-0.4-0.1-0.5-0.2c-0.1-0.1-0.2-0.3-0.2-0.5v-1l0.3,0.1c0,0.2-0.1,0.3-0.2,0.6c-0.1,0.2-0.3,0.4-0.6,0.6s-0.5,0.3-0.8,0.5
			c-0.3,0.1-0.7,0.2-1,0.2c-0.6,0-1.2-0.2-1.7-0.5c-0.5-0.3-0.9-0.8-1.2-1.4s-0.4-1.2-0.4-2c0-0.8,0.1-1.4,0.4-2
			c0.3-0.6,0.7-1,1.2-1.4c0.5-0.3,1.1-0.5,1.7-0.5c0.4,0,0.8,0.1,1.1,0.2s0.6,0.3,0.9,0.5c0.3,0.2,0.4,0.4,0.6,0.7s0.2,0.4,0.2,0.7
			l-0.4,0v-1.3c0-0.2,0.1-0.4,0.2-0.5S54.6,84.1,54.8,84.1z M51.9,90.4c0.4,0,0.8-0.1,1.2-0.3c0.3-0.2,0.6-0.5,0.8-0.9
			c0.2-0.4,0.3-0.8,0.3-1.3c0-0.5-0.1-0.9-0.3-1.3c-0.2-0.4-0.4-0.7-0.8-0.9c-0.3-0.2-0.7-0.3-1.2-0.3c-0.4,0-0.8,0.1-1.1,0.3
			c-0.3,0.2-0.6,0.5-0.8,0.9c-0.2,0.4-0.3,0.8-0.3,1.3c0,0.5,0.1,0.9,0.3,1.3c0.2,0.4,0.5,0.7,0.8,0.9
			C51.1,90.3,51.5,90.4,51.9,90.4z"/>
		<path class="st1" d="M61.2,84c0.6,0,1.1,0.1,1.5,0.4c0.4,0.3,0.6,0.6,0.7,1.1c0.1,0.5,0.2,1,0.2,1.5v3.7c0,0.2-0.1,0.4-0.2,0.5
			c-0.1,0.1-0.3,0.2-0.5,0.2c-0.2,0-0.4-0.1-0.5-0.2c-0.1-0.1-0.2-0.3-0.2-0.5v-3.7c0-0.3,0-0.6-0.1-0.9c-0.1-0.3-0.2-0.5-0.5-0.6
			c-0.2-0.2-0.5-0.2-0.9-0.2c-0.4,0-0.7,0.1-1,0.2c-0.3,0.2-0.5,0.4-0.7,0.6c-0.2,0.3-0.2,0.6-0.2,0.9v3.7c0,0.2-0.1,0.4-0.2,0.5
			c-0.1,0.1-0.3,0.2-0.5,0.2c-0.2,0-0.4-0.1-0.5-0.2c-0.1-0.1-0.2-0.3-0.2-0.5v-8.9c0-0.2,0.1-0.4,0.2-0.5c0.1-0.1,0.3-0.2,0.5-0.2
			c0.2,0,0.4,0.1,0.5,0.2c0.1,0.1,0.2,0.3,0.2,0.5v3.8l-0.3,0.1c0.1-0.2,0.2-0.4,0.3-0.6s0.3-0.4,0.6-0.6c0.2-0.2,0.5-0.3,0.8-0.4
			C60.5,84.1,60.8,84,61.2,84z"/>
		<path class="st1" d="M71.6,84.1c0.2,0,0.4,0.1,0.5,0.2c0.1,0.1,0.2,0.3,0.2,0.5v6c0,0.2-0.1,0.4-0.2,0.5c-0.1,0.1-0.3,0.2-0.5,0.2
			s-0.4-0.1-0.5-0.2c-0.1-0.1-0.2-0.3-0.2-0.5v-1l0.3,0.1c0,0.2-0.1,0.3-0.2,0.6c-0.1,0.2-0.3,0.4-0.6,0.6s-0.5,0.3-0.8,0.5
			c-0.3,0.1-0.7,0.2-1,0.2c-0.6,0-1.2-0.2-1.7-0.5c-0.5-0.3-0.9-0.8-1.2-1.4s-0.4-1.2-0.4-2c0-0.8,0.1-1.4,0.4-2
			c0.3-0.6,0.7-1,1.2-1.4c0.5-0.3,1.1-0.5,1.7-0.5c0.4,0,0.8,0.1,1.1,0.2s0.6,0.3,0.9,0.5c0.3,0.2,0.4,0.4,0.6,0.7s0.2,0.4,0.2,0.7
			l-0.4,0v-1.3c0-0.2,0.1-0.4,0.2-0.5S71.4,84.1,71.6,84.1z M68.7,90.4c0.4,0,0.8-0.1,1.2-0.3c0.3-0.2,0.6-0.5,0.8-0.9
			c0.2-0.4,0.3-0.8,0.3-1.3c0-0.5-0.1-0.9-0.3-1.3c-0.2-0.4-0.4-0.7-0.8-0.9c-0.3-0.2-0.7-0.3-1.2-0.3c-0.4,0-0.8,0.1-1.1,0.3
			c-0.3,0.2-0.6,0.5-0.8,0.9c-0.2,0.4-0.3,0.8-0.3,1.3c0,0.5,0.1,0.9,0.3,1.3c0.2,0.4,0.5,0.7,0.8,0.9
			C67.9,90.3,68.3,90.4,68.7,90.4z"/>
		<path class="st1" d="M78,84c0.7,0,1.2,0.2,1.6,0.5c0.4,0.3,0.6,0.8,0.7,1.4l-0.2-0.1l0.1-0.2c0.1-0.2,0.3-0.5,0.6-0.7
			c0.2-0.2,0.5-0.5,0.9-0.6c0.3-0.2,0.7-0.2,1.1-0.2c0.6,0,1.1,0.1,1.5,0.4c0.4,0.3,0.6,0.6,0.7,1.1c0.1,0.5,0.2,1,0.2,1.5v3.7
			c0,0.2-0.1,0.4-0.2,0.5c-0.1,0.1-0.3,0.2-0.5,0.2c-0.2,0-0.4-0.1-0.5-0.2c-0.1-0.1-0.2-0.3-0.2-0.5v-3.7c0-0.3,0-0.6-0.1-0.9
			c-0.1-0.3-0.2-0.5-0.5-0.7c-0.2-0.2-0.5-0.2-0.9-0.2c-0.4,0-0.7,0.1-1,0.2c-0.3,0.2-0.5,0.4-0.7,0.7c-0.2,0.3-0.2,0.6-0.2,0.9v3.7
			c0,0.2-0.1,0.4-0.2,0.5c-0.1,0.1-0.3,0.2-0.5,0.2s-0.4-0.1-0.5-0.2C79.1,91.2,79,91,79,90.8v-3.7c0-0.3,0-0.6-0.1-0.9
			c-0.1-0.3-0.2-0.5-0.5-0.6c-0.2-0.2-0.5-0.2-0.9-0.2c-0.4,0-0.7,0.1-1,0.2c-0.3,0.2-0.5,0.4-0.7,0.6c-0.2,0.3-0.2,0.6-0.2,0.9v3.7
			c0,0.2-0.1,0.4-0.2,0.5c-0.1,0.1-0.3,0.2-0.5,0.2c-0.2,0-0.4-0.1-0.5-0.2c-0.1-0.1-0.2-0.3-0.2-0.5v-5.9c0-0.2,0.1-0.4,0.2-0.5
			c0.1-0.1,0.3-0.2,0.5-0.2c0.2,0,0.4,0.1,0.5,0.2c0.1,0.1,0.2,0.3,0.2,0.5v0.8l-0.3,0.2c0.1-0.2,0.2-0.4,0.3-0.6s0.3-0.4,0.6-0.6
			s0.5-0.3,0.8-0.4C77.3,84.1,77.6,84,78,84z"/>
		<path class="st1" d="M87.6,87.9c-0.2,0-0.4-0.1-0.5-0.2c-0.1-0.1-0.2-0.3-0.2-0.5c0-0.2,0.1-0.4,0.2-0.5c0.1-0.1,0.3-0.2,0.5-0.2
			h2.6c0.2,0,0.4,0.1,0.5,0.2c0.1,0.1,0.2,0.3,0.2,0.5c0,0.2-0.1,0.4-0.2,0.5s-0.3,0.2-0.5,0.2H87.6z"/>
		<path class="st1" d="M98.1,84.2c0.2,0,0.4,0.1,0.5,0.2c0.1,0.1,0.2,0.3,0.2,0.5v3.7c0,1-0.3,1.7-0.8,2.3c-0.5,0.5-1.3,0.8-2.3,0.8
			s-1.8-0.3-2.3-0.8c-0.5-0.5-0.8-1.3-0.8-2.3v-3.7c0-0.2,0.1-0.4,0.2-0.5c0.1-0.1,0.3-0.2,0.5-0.2c0.2,0,0.4,0.1,0.5,0.2
			c0.1,0.1,0.2,0.3,0.2,0.5v3.7c0,0.6,0.1,1.1,0.4,1.4c0.3,0.3,0.7,0.4,1.3,0.4c0.6,0,1-0.1,1.3-0.4c0.3-0.3,0.4-0.8,0.4-1.4v-3.7
			c0-0.2,0.1-0.4,0.2-0.5C97.8,84.2,97.9,84.2,98.1,84.2z"/>
		<path class="st1" d="M101.6,91.5c-0.2,0-0.4-0.1-0.5-0.2c-0.1-0.1-0.2-0.3-0.2-0.5v-8.9c0-0.2,0.1-0.4,0.2-0.5
			c0.1-0.1,0.3-0.2,0.5-0.2c0.2,0,0.4,0.1,0.5,0.2c0.1,0.1,0.2,0.3,0.2,0.5v8.9c0,0.2-0.1,0.4-0.2,0.5
			C102,91.5,101.8,91.5,101.6,91.5z M106.1,84.1c0.2,0,0.3,0.1,0.5,0.2c0.1,0.1,0.2,0.3,0.2,0.4c0,0.2-0.1,0.4-0.3,0.5l-4.4,3.9
			l-0.1-1.6l3.5-3.3C105.8,84.2,105.9,84.1,106.1,84.1z M106.3,91.5c-0.2,0-0.4-0.1-0.5-0.2l-2.8-3l1.1-1l2.7,3
			c0.1,0.2,0.2,0.3,0.2,0.5c0,0.2-0.1,0.4-0.2,0.5S106.5,91.5,106.3,91.5z"/>
		<path class="st1" d="M114.6,84.1c0.2,0,0.4,0.1,0.5,0.2c0.1,0.1,0.2,0.3,0.2,0.5v6c0,0.2-0.1,0.4-0.2,0.5
			c-0.1,0.1-0.3,0.2-0.5,0.2s-0.4-0.1-0.5-0.2c-0.1-0.1-0.2-0.3-0.2-0.5v-1l0.3,0.1c0,0.2-0.1,0.3-0.2,0.6c-0.1,0.2-0.3,0.4-0.6,0.6
			s-0.5,0.3-0.8,0.5c-0.3,0.1-0.7,0.2-1,0.2c-0.6,0-1.2-0.2-1.7-0.5c-0.5-0.3-0.9-0.8-1.2-1.4s-0.4-1.2-0.4-2c0-0.8,0.1-1.4,0.4-2
			c0.3-0.6,0.7-1,1.2-1.4c0.5-0.3,1.1-0.5,1.7-0.5c0.4,0,0.8,0.1,1.1,0.2s0.6,0.3,0.9,0.5c0.3,0.2,0.4,0.4,0.6,0.7s0.2,0.4,0.2,0.7
			l-0.4,0v-1.3c0-0.2,0.1-0.4,0.2-0.5S114.4,84.1,114.6,84.1z M111.8,90.4c0.4,0,0.8-0.1,1.2-0.3c0.3-0.2,0.6-0.5,0.8-0.9
			c0.2-0.4,0.3-0.8,0.3-1.3c0-0.5-0.1-0.9-0.3-1.3c-0.2-0.4-0.4-0.7-0.8-0.9c-0.3-0.2-0.7-0.3-1.2-0.3c-0.4,0-0.8,0.1-1.1,0.3
			c-0.3,0.2-0.6,0.5-0.8,0.9c-0.2,0.4-0.3,0.8-0.3,1.3c0,0.5,0.1,0.9,0.3,1.3c0.2,0.4,0.5,0.7,0.8,0.9
			C111,90.3,111.3,90.4,111.8,90.4z"/>
		<path class="st1" d="M120.5,84c0.5,0,1,0.1,1.3,0.2c0.4,0.1,0.7,0.3,0.9,0.4s0.3,0.4,0.3,0.7c0,0.2,0,0.3-0.1,0.4
			c-0.1,0.1-0.2,0.2-0.4,0.2c-0.1,0-0.3,0-0.3-0.1s-0.2-0.1-0.2-0.2c-0.1-0.1-0.2-0.1-0.3-0.2c-0.1-0.1-0.3-0.1-0.5-0.1
			c-0.2,0-0.4,0-0.5,0c-0.5,0-0.9,0.1-1.3,0.3c-0.4,0.2-0.6,0.5-0.8,0.9c-0.2,0.4-0.3,0.8-0.3,1.3s0.1,0.9,0.3,1.3
			c0.2,0.4,0.5,0.7,0.8,0.9c0.3,0.2,0.8,0.3,1.2,0.3c0.3,0,0.5,0,0.7-0.1c0.2,0,0.3-0.1,0.5-0.2c0.1-0.1,0.3-0.2,0.4-0.3
			c0.1-0.1,0.2-0.1,0.4-0.1c0.2,0,0.4,0.1,0.5,0.2s0.2,0.3,0.2,0.5c0,0.2-0.1,0.4-0.4,0.6c-0.2,0.2-0.6,0.3-1,0.5s-0.9,0.2-1.4,0.2
			c-0.7,0-1.3-0.2-1.9-0.5c-0.5-0.3-1-0.8-1.2-1.4c-0.3-0.6-0.4-1.2-0.4-2c0-0.7,0.2-1.4,0.5-2c0.3-0.6,0.7-1,1.3-1.4
			S119.8,84,120.5,84z"/>
		<path class="st1" d="M128.3,84c0.6,0,1.1,0.1,1.5,0.4c0.4,0.3,0.6,0.6,0.7,1.1c0.1,0.5,0.2,1,0.2,1.5v3.7c0,0.2-0.1,0.4-0.2,0.5
			c-0.1,0.1-0.3,0.2-0.5,0.2c-0.2,0-0.4-0.1-0.5-0.2c-0.1-0.1-0.2-0.3-0.2-0.5v-3.7c0-0.3,0-0.6-0.1-0.9c-0.1-0.3-0.2-0.5-0.5-0.6
			c-0.2-0.2-0.5-0.2-0.9-0.2c-0.4,0-0.7,0.1-1,0.2c-0.3,0.2-0.5,0.4-0.7,0.6c-0.2,0.3-0.2,0.6-0.2,0.9v3.7c0,0.2-0.1,0.4-0.2,0.5
			c-0.1,0.1-0.3,0.2-0.5,0.2c-0.2,0-0.4-0.1-0.5-0.2c-0.1-0.1-0.2-0.3-0.2-0.5v-8.9c0-0.2,0.1-0.4,0.2-0.5c0.1-0.1,0.3-0.2,0.5-0.2
			c0.2,0,0.4,0.1,0.5,0.2c0.1,0.1,0.2,0.3,0.2,0.5v3.8l-0.3,0.1c0.1-0.2,0.2-0.4,0.3-0.6s0.3-0.4,0.6-0.6c0.2-0.2,0.5-0.3,0.8-0.4
			C127.6,84.1,127.9,84,128.3,84z"/>
		<path class="st1" d="M133.3,83.2c-0.3,0-0.5,0-0.6-0.1c-0.1-0.1-0.2-0.3-0.2-0.5v-0.2c0-0.2,0.1-0.4,0.2-0.5
			c0.1-0.1,0.3-0.1,0.6-0.1c0.3,0,0.5,0,0.6,0.1c0.1,0.1,0.2,0.3,0.2,0.5v0.2c0,0.2-0.1,0.4-0.2,0.5
			C133.7,83.1,133.5,83.2,133.3,83.2z M134,90.8c0,0.2-0.1,0.4-0.2,0.5c-0.1,0.1-0.3,0.2-0.5,0.2s-0.4-0.1-0.5-0.2
			c-0.1-0.1-0.2-0.3-0.2-0.5v-6c0-0.2,0.1-0.4,0.2-0.5c0.1-0.1,0.3-0.2,0.5-0.2c0.2,0,0.4,0.1,0.5,0.2c0.1,0.1,0.2,0.3,0.2,0.5V90.8
			z"/>
	</g>
</g>
</svg>
