<?xml version="1.0" encoding="UTF-8"?>
<svg xmlns="http://www.w3.org/2000/svg" viewBox="0 0 24 24" width="24" height="24" fill="none" aria-hidden="true">
  <defs>
    <mask id="calendar_monthMask" maskUnits="userSpaceOnUse" x="0" y="0" width="24" height="24">
      <path d="M6.3 6 H17.7 A1.8 1.8 0 0 1 19.5 7.8 V10 H4.5 V7.8 A1.8 1.8 0 0 1 6.3 6 Z" fill="#fff" stroke="#fff" stroke-width="1.85" stroke-linejoin="round"/>
      <path d="M4.5 10 H19.5 V18.2 A1.8 1.8 0 0 1 17.7 20 H6.3 A1.8 1.8 0 0 1 4.5 18.2 Z" fill="#fff" stroke="#fff" stroke-width="1.85" stroke-linejoin="round"/>
      <line x1="8" y1="4.5" x2="8" y2="7.5" stroke="#fff" stroke-width="1.85" stroke-linecap="round"/>
      <line x1="16" y1="4.5" x2="16" y2="7.5" stroke="#fff" stroke-width="1.85" stroke-linecap="round"/>
      <rect x="4.8" y="9.15" width="14.4" height="1.8" fill="#000"/>
      <circle cx="8" cy="13.15" r="1.35" fill="#000"/>
      <circle cx="12" cy="13.15" r="1.35" fill="#000"/>
      <circle cx="16" cy="13.15" r="1.35" fill="#000"/>
      <circle cx="8" cy="16.55" r="1.35" fill="#000"/>
      <circle cx="12" cy="16.55" r="1.35" fill="#000"/>
    </mask>
  </defs>
  <rect width="24" height="24" fill="#e6edf3" mask="url(#calendar_monthMask)"/>
</svg>
